<svg xmlns="http://www.w3.org/2000/svg" width="88" height="88.002" viewBox="0 0 88 88.002">
  <path id="Path_73" data-name="Path 73" d="M215.177,248.817c23.885-.3,43.565,19.687,43.467,43.583a43.5,43.5,0,1,1-87-.247C171.64,268.029,191.707,248.473,215.177,248.817Zm21.829,70.851-27.93-27.843,27.41-27.294c-11.976-9.924-32.4-10.76-46.209,2.9-13.4,13.259-13.828,34.57-.778,48.785A34.841,34.841,0,0,0,237.007,319.669Zm5.734-48.832-21.327,21.33,21.423,21.449C252.85,301.686,252.683,282.543,242.741,270.837Z" transform="translate(-171.145 -248.312)" stroke="#000" stroke-width="1"/>
</svg>
